<svg width="60" height="65" viewBox="0 0 60 65" fill="none" xmlns="http://www.w3.org/2000/svg">
<g clip-path="url(#clip0_1_2)">
<path d="M54.1323 55.14H8.62932C6.71324 55.14 4.66235 57.0935 4.66235 59.0498C4.66235 61.3399 6.71324 62.9602 8.62932 62.9602H51.3209L55.0355 55.14H54.1323Z" fill="#F2F2F2"/>
<path d="M4.66237 59.0498C4.66237 61.3399 6.71326 62.9602 8.62933 62.9602H51.3209L51.9187 61.7062V65H8.50514C5.8326 65 3.24109 62.9307 3.24109 60.147C3.24109 57.8345 5.10735 55.9545 7.30701 55.4379C5.8771 56.0531 4.66237 57.5446 4.66237 59.0498Z" fill="#242C56"/>
<path d="M8.08008 55.2062C7.81507 55.2541 7.55549 55.3322 7.30568 55.4393C5.10602 55.9545 3.23976 57.8345 3.23976 60.147C3.24178 60.3313 3.25397 60.5154 3.27628 60.6981C3.19937 60.2754 3.16088 59.8455 3.16138 59.4146V6.34309C3.16138 2.85569 5.56495 0 8.50381 0C8.36035 0 8.22287 0.0395811 8.08008 0.053971V55.2062Z" fill="#242C56"/>
<path d="M8.62933 55.14C8.44489 55.1459 8.26121 55.1681 8.08008 55.2062V0.053971C8.22287 0.0395811 8.36035 0 8.50381 0H17.5847L46.7888 55.14H8.62933Z" fill="#44C3FF"/>
<path d="M17.5847 0H56.836V55.14H46.7887L17.5847 0Z" fill="#69D5FF"/>
<path d="M17.1054 11.1891C16.871 11.1891 16.7226 11.2932 16.6601 11.5016C16.8216 12.3141 17.1471 14.2281 17.6367 17.2438C18.1314 20.3115 18.5117 22.3948 18.7773 23.4938C18.8762 23.6083 19.0012 23.6656 19.1523 23.6656C19.2044 23.6656 19.2669 23.5432 19.3398 23.2984C19.4596 22.8766 19.6106 22.0432 19.7929 20.7984C19.9023 20.0536 20.0637 18.8167 20.2773 17.0875C20.4439 15.749 20.582 14.5484 20.6913 13.4859C20.8268 12.1682 20.9049 11.4469 20.9257 11.3219L20.5898 11.1422C20.3658 11.1422 20.1705 11.249 20.0038 11.4625C20.0038 12.3375 19.957 13.2672 19.8632 14.2516C19.7695 15.2359 19.621 16.4391 19.4179 17.8609C19.2512 18.9964 19.121 19.9599 19.0273 20.7516L18.582 17.9156C18.2955 16.0615 18.0247 14.5016 17.7695 13.2359C17.4986 11.8714 17.2773 11.1891 17.1054 11.1891ZM25.8867 22.9703C25.8867 22.5953 25.6653 22.4078 25.2226 22.4078C25.1132 22.4078 25.0038 22.4156 24.8945 22.4313V21.8141C24.8945 20.7307 24.8294 19.1708 24.6992 17.1344C24.5689 15.0979 24.5038 13.538 24.5038 12.4547C24.5038 12.3297 24.5273 12.2438 24.5742 12.1969C24.621 12.15 24.6992 12.1266 24.8085 12.1266H24.9335C24.9752 12.1318 25.0273 12.1344 25.0898 12.1344C25.1992 12.1344 25.2877 12.0927 25.3554 12.0094C25.4283 11.9208 25.4648 11.8193 25.4648 11.7047C25.4648 11.5849 25.4179 11.4833 25.3242 11.4C25.2304 11.3115 25.121 11.2672 24.996 11.2672C24.6731 11.2672 24.2955 11.3063 23.8632 11.3844C23.6132 11.4313 23.4101 11.5042 23.2538 11.6031C23.0976 11.6969 23.0195 11.8063 23.0195 11.9313C23.0195 12.1865 23.1445 12.3141 23.3945 12.3141C23.5038 12.3141 23.6288 12.2906 23.7695 12.2438C23.7955 12.5198 23.8085 12.8167 23.8085 13.1344L23.7929 13.9469L23.7773 14.7672C23.7773 15.6318 23.8268 16.8635 23.9257 18.4625C24.0247 20.0667 24.0742 21.301 24.0742 22.1656C24.0742 22.3063 24.0559 22.4052 24.0195 22.4625C23.983 22.5146 23.9231 22.5406 23.8398 22.5406L23.6913 22.525C23.6393 22.5198 23.5768 22.5172 23.5038 22.5172C23.1809 22.5172 23.0195 22.6448 23.0195 22.9C23.0195 23.2177 23.4804 23.3766 24.4023 23.3766C24.5898 23.3766 24.8111 23.3688 25.0663 23.3531L25.4882 23.3375L25.8867 23.0641V22.9703ZM28.6054 11.1891C28.371 11.1891 28.2226 11.2932 28.1601 11.5016C28.3216 12.3141 28.6471 14.2281 29.1367 17.2438C29.6314 20.3115 30.0117 22.3948 30.2773 23.4938C30.3762 23.6083 30.5012 23.6656 30.6523 23.6656C30.7044 23.6656 30.7669 23.5432 30.8398 23.2984C30.9596 22.8766 31.1106 22.0432 31.2929 20.7984C31.4023 20.0536 31.5637 18.8167 31.7773 17.0875C31.9439 15.749 32.082 14.5484 32.1913 13.4859C32.3268 12.1682 32.4049 11.4469 32.4257 11.3219L32.0898 11.1422C31.8658 11.1422 31.6705 11.249 31.5038 11.4625C31.5038 12.3375 31.457 13.2672 31.3632 14.2516C31.2695 15.2359 31.121 16.4391 30.9179 17.8609C30.7512 18.9964 30.621 19.9599 30.5273 20.7516L30.082 17.9156C29.7955 16.0615 29.5247 14.5016 29.2695 13.2359C28.9986 11.8714 28.7773 11.1891 28.6054 11.1891ZM38.246 23.3922C38.0742 23.3922 37.9492 23.3609 37.871 23.2984C37.7929 23.2359 37.7538 23.1292 37.7538 22.9781V20.8922C37.6132 20.7932 37.3528 20.7073 36.9726 20.6344C36.5976 20.5563 36.2356 20.5068 35.8867 20.4859C35.7825 20.663 35.6939 20.9339 35.621 21.2984L35.5742 21.5406C35.4908 21.9677 35.4153 22.3141 35.3476 22.5797C35.2799 22.8453 35.1966 23.0589 35.0976 23.2203C34.6861 23.2203 34.4518 23.1135 34.3945 22.9C34.4934 22.7594 34.6262 22.2594 34.7929 21.4C34.9335 20.6656 35.108 19.6891 35.3163 18.4703C35.5559 17.0536 35.7747 15.8635 35.9726 14.9C36.1705 13.9313 36.3788 13.1161 36.5976 12.4547C36.8372 11.7151 37.0716 11.3453 37.3007 11.3453C37.5247 11.3453 37.6966 11.3922 37.8163 11.4859C37.8163 11.8818 37.9205 12.9104 38.1288 14.5719C38.3372 16.2333 38.4413 17.3271 38.4413 17.8531C38.4413 18.3531 38.4986 19.1604 38.6132 20.275C38.7226 21.4208 38.7773 22.2802 38.7773 22.8531C38.7773 23.2125 38.6002 23.3922 38.246 23.3922ZM37.4101 19.9547C37.5038 19.9547 37.6132 19.9391 37.7382 19.9078C37.7226 19.6786 37.6679 19.0979 37.5742 18.1656C37.3294 15.6969 37.207 14.2229 37.207 13.7438C37.207 13.6656 37.2096 13.6188 37.2148 13.6031C37.1106 13.7073 36.9648 14.1891 36.7773 15.0484C36.5898 15.9078 36.4153 16.8323 36.2538 17.8219C36.0924 18.8063 36.0038 19.4573 35.9882 19.775C36.4413 19.8948 36.9153 19.9547 37.4101 19.9547ZM18.2148 40.0953C18.2148 38.3036 18.1939 36.913 18.1523 35.9234V35.8531C18.1575 35.8375 18.1601 35.7984 18.1601 35.7359C18.1601 35.663 18.1575 35.5979 18.1523 35.5406L18.1367 35.3453C18.1367 34.6474 18.1106 33.6891 18.0585 32.4703C18.0012 31.1266 17.9726 30.1656 17.9726 29.5875C17.9726 29.4625 17.9231 29.3557 17.8242 29.2672C17.7304 29.1734 17.6184 29.1266 17.4882 29.1266C17.3788 29.1266 17.2851 29.1578 17.207 29.2203C17.1341 29.2828 17.0976 29.3609 17.0976 29.4547C17.0976 30.6682 17.1523 32.4859 17.2617 34.9078C17.3658 37.3974 17.4179 39.2177 17.4179 40.3688C17.4179 40.4469 17.4023 40.5615 17.371 40.7125C17.3346 40.8583 17.3163 40.9781 17.3163 41.0719C17.3163 41.2073 17.371 41.3245 17.4804 41.4234C17.5898 41.5276 17.7148 41.5797 17.8554 41.5797C18.0481 41.5797 18.1992 41.5146 18.3085 41.3844C18.4023 41.3844 18.4882 41.387 18.5663 41.3922L18.8242 41.4078C18.9492 41.4078 19.0507 41.3974 19.1288 41.3766L19.207 41.4C19.2643 41.4208 19.3189 41.4313 19.371 41.4313C19.4856 41.4313 19.582 41.387 19.6601 41.2984C19.7382 41.2047 19.7773 41.0979 19.7773 40.9781C19.7773 40.8167 19.6627 40.6578 19.4335 40.5016H18.2148V40.0953ZM24.4179 40.9703C24.4179 40.5953 24.1966 40.4078 23.7538 40.4078C23.6445 40.4078 23.5351 40.4156 23.4257 40.4313V39.8141C23.4257 38.7307 23.3606 37.1708 23.2304 35.1344C23.1002 33.0979 23.0351 31.538 23.0351 30.4547C23.0351 30.3297 23.0585 30.2438 23.1054 30.1969C23.1523 30.15 23.2304 30.1266 23.3398 30.1266H23.4648C23.5064 30.1318 23.5585 30.1344 23.621 30.1344C23.7304 30.1344 23.8189 30.0927 23.8867 30.0094C23.9596 29.9208 23.996 29.8193 23.996 29.7047C23.996 29.5849 23.9492 29.4833 23.8554 29.4C23.7617 29.3115 23.6523 29.2672 23.5273 29.2672C23.2044 29.2672 22.8268 29.3063 22.3945 29.3844C22.1445 29.4313 21.9413 29.5042 21.7851 29.6031C21.6288 29.6969 21.5507 29.8063 21.5507 29.9313C21.5507 30.1865 21.6757 30.3141 21.9257 30.3141C22.0351 30.3141 22.1601 30.2906 22.3007 30.2438C22.3268 30.5198 22.3398 30.8167 22.3398 31.1344L22.3242 31.9469L22.3085 32.7672C22.3085 33.6318 22.358 34.8635 22.457 36.4625C22.5559 38.0667 22.6054 39.301 22.6054 40.1656C22.6054 40.3063 22.5872 40.4052 22.5507 40.4625C22.5143 40.5146 22.4544 40.5406 22.371 40.5406L22.2226 40.525C22.1705 40.5198 22.108 40.5172 22.0351 40.5172C21.7122 40.5172 21.5507 40.6448 21.5507 40.9C21.5507 41.2177 22.0117 41.3766 22.9335 41.3766C23.121 41.3766 23.3424 41.3688 23.5976 41.3531L24.0195 41.3375L24.4179 41.0641V40.9703ZM27.1367 29.1891C26.9023 29.1891 26.7538 29.2932 26.6913 29.5016C26.8528 30.3141 27.1783 32.2281 27.6679 35.2438C28.1627 38.3115 28.5429 40.3948 28.8085 41.4938C28.9075 41.6083 29.0325 41.6656 29.1835 41.6656C29.2356 41.6656 29.2981 41.5432 29.371 41.2984C29.4908 40.8766 29.6419 40.0432 29.8242 38.7984C29.9335 38.0536 30.095 36.8167 30.3085 35.0875C30.4752 33.749 30.6132 32.5484 30.7226 31.4859C30.858 30.1682 30.9361 29.4469 30.957 29.3219L30.621 29.1422C30.3971 29.1422 30.2018 29.249 30.0351 29.4625C30.0351 30.3375 29.9882 31.2672 29.8945 32.2516C29.8007 33.2359 29.6523 34.4391 29.4492 35.8609C29.2825 36.9964 29.1523 37.9599 29.0585 38.7516L28.6132 35.9156C28.3268 34.0615 28.0559 32.5016 27.8007 31.2359C27.5299 29.8714 27.3085 29.1891 27.1367 29.1891ZM34.2148 34.6891C34.3242 35.1214 34.5195 35.7854 34.8007 36.6813C35.108 37.6656 35.3424 38.5068 35.5038 39.2047C35.6705 39.8974 35.7695 40.5224 35.8007 41.0797V41.1344C35.9882 41.4208 36.1809 41.5641 36.3788 41.5641C36.5716 41.5641 36.6861 41.4755 36.7226 41.2984C36.7382 41.2203 36.7486 41.1474 36.7538 41.0797C36.7643 41.012 36.7695 40.9339 36.7695 40.8453V40.8063L36.3007 39.3922C36.0611 38.6839 35.871 38.1005 35.7304 37.6422C35.5742 37.1474 35.4335 36.6057 35.3085 36.0172C35.1887 35.4286 35.1262 34.9417 35.121 34.5563L35.2851 34.1422L35.4726 33.6813C35.6236 33.275 35.7174 32.9781 35.7538 32.7906C35.8268 32.426 35.8632 32.1266 35.8632 31.8922C35.8632 31.6422 35.8398 31.3974 35.7929 31.1578C35.7408 30.9078 35.6601 30.6682 35.5507 30.4391C35.4413 30.2047 35.3111 29.999 35.1601 29.8219C34.9986 29.6396 34.8033 29.4964 34.5742 29.3922C34.3502 29.288 34.108 29.2359 33.8476 29.2359C33.6757 29.2359 33.5611 29.262 33.5038 29.3141C33.4518 29.3609 33.4257 29.4495 33.4257 29.5797V31.5484C33.4257 32.8193 33.4153 34.3818 33.3945 36.2359C33.3736 38.0901 33.3632 39.6552 33.3632 40.9313V41.0563C33.3632 41.1813 33.3997 41.288 33.4726 41.3766C33.5507 41.4599 33.6497 41.5016 33.7695 41.5016C33.9413 41.5016 34.0585 41.4599 34.121 41.3766C34.1835 41.2932 34.2148 41.1656 34.2148 40.9938V34.6891ZM34.7148 33.3531C34.5429 33.5875 34.3632 33.7932 34.1757 33.9703C34.1653 33.7516 34.1601 33.5068 34.1601 33.2359C34.1601 32.8505 34.1757 32.2958 34.207 31.5719C34.233 30.7646 34.246 30.2307 34.246 29.9703C34.3554 29.9911 34.457 30.0667 34.5507 30.1969C34.6497 30.3271 34.7304 30.4885 34.7929 30.6813C34.9179 31.0823 34.9804 31.4417 34.9804 31.7594C34.9804 31.8063 34.9752 31.8766 34.9648 31.9703L34.7148 33.3531ZM40.7929 29.0172C40.5898 29.0172 40.3997 29.0615 40.2226 29.15C40.0507 29.2438 39.9075 29.3661 39.7929 29.5172C39.6783 29.663 39.5768 29.8505 39.4882 30.0797C39.3216 30.5224 39.2122 31.025 39.1601 31.5875C39.108 32.0875 39.082 32.6552 39.082 33.2906L39.0976 34.2984C39.1028 34.5797 39.1054 34.8661 39.1054 35.1578C39.1054 35.3245 39.1106 35.6057 39.121 36.0016C39.1367 36.3453 39.1627 36.7411 39.1992 37.1891C39.2408 37.6318 39.2929 38.0406 39.3554 38.4156C39.4231 38.8427 39.5169 39.2698 39.6367 39.6969C39.7564 40.124 39.8919 40.4859 40.0429 40.7828C40.2044 41.1057 40.4049 41.3635 40.6445 41.5563C40.8893 41.749 41.1523 41.8453 41.4335 41.8453C41.7304 41.8453 41.9986 41.7203 42.2382 41.4703C42.4726 41.2359 42.6523 40.9599 42.7773 40.6422C42.9023 40.3245 42.9648 40.0172 42.9648 39.7203C42.9648 39.3036 42.9986 38.9521 43.0663 38.6656V38.5953C43.0663 38.3714 43.0898 38.038 43.1367 37.5953C43.1835 37.1474 43.207 36.8063 43.207 36.5719V35.65C43.207 35.0146 43.1887 34.3036 43.1523 33.5172C43.1367 33.1266 43.1054 32.7724 43.0585 32.4547C43.0117 32.137 42.9466 31.7724 42.8632 31.3609C42.7903 31.0172 42.6939 30.7125 42.5742 30.4469C42.4544 30.1813 42.3085 29.9286 42.1367 29.6891C41.9752 29.4703 41.7799 29.3036 41.5507 29.1891C41.3216 29.0745 41.0689 29.0172 40.7929 29.0172ZM40.871 29.8609C41.0585 29.8609 41.2304 29.9339 41.3867 30.0797C41.5481 30.2255 41.6835 30.4365 41.7929 30.7125C42.0221 31.301 42.1809 31.9521 42.2695 32.6656C42.3684 33.5354 42.4309 34.2542 42.457 34.8219C42.4726 35.3271 42.4804 35.8193 42.4804 36.2984C42.4804 36.637 42.47 36.9911 42.4492 37.3609C42.4127 37.9651 42.3632 38.5302 42.3007 39.0563C42.2382 39.5771 42.1419 40.0146 42.0117 40.3688C41.8606 40.7698 41.6783 40.9703 41.4648 40.9703C41.22 40.9703 40.9986 40.7854 40.8007 40.4156C40.6132 40.0719 40.4596 39.65 40.3398 39.15C40.2252 38.65 40.1236 38.0589 40.0351 37.3766C39.8945 36.3297 39.8242 35.4521 39.8242 34.7438V34.6734C39.8242 34.6161 39.8294 34.3375 39.8398 33.8375L39.8476 33.5406C39.858 33.1031 39.8971 32.5641 39.9648 31.9234C40.0117 31.4391 40.1158 30.9599 40.2773 30.4859C40.4231 30.0693 40.621 29.8609 40.871 29.8609ZM46.8476 31.3219C46.8476 31.124 46.8788 30.9208 46.9413 30.7125C47.0038 30.4938 47.108 30.3036 47.2538 30.1422C47.4049 29.9807 47.5742 29.8896 47.7617 29.8688C47.9127 29.9729 48.121 30.025 48.3867 30.025L48.6601 29.6813C48.5872 29.5146 48.4596 29.3766 48.2773 29.2672C48.095 29.1578 47.9075 29.1031 47.7148 29.1031C47.3294 29.1031 47.0012 29.2281 46.7304 29.4781C46.4596 29.7177 46.2591 30.0094 46.1288 30.3531C45.9986 30.6917 45.9335 31.0536 45.9335 31.4391C45.9335 31.9182 46.0117 32.413 46.1679 32.9234C46.2825 33.3036 46.4179 33.6656 46.5742 34.0094C46.7304 34.3479 46.9361 34.7646 47.1913 35.2594L47.4179 35.7047C47.6627 36.1891 47.858 36.6839 48.0038 37.1891C48.1497 37.6943 48.2226 38.1734 48.2226 38.6266C48.2226 38.8193 48.1966 39.0432 48.1445 39.2984C48.0976 39.5536 48.0273 39.8115 47.9335 40.0719C47.8346 40.3531 47.6992 40.5823 47.5273 40.7594C47.3606 40.9365 47.1783 41.025 46.9804 41.025C46.8971 41.025 46.7617 40.9833 46.5742 40.9C46.3814 40.8219 46.2226 40.7828 46.0976 40.7828C45.983 40.7828 45.8945 40.8245 45.832 40.9078C45.7695 40.9859 45.7382 41.0875 45.7382 41.2125C45.7382 41.3479 45.8242 41.4573 45.996 41.5406C46.2669 41.6813 46.595 41.7516 46.9804 41.7516C47.3294 41.7516 47.6497 41.6578 47.9413 41.4703C48.233 41.2828 48.4674 41.0302 48.6445 40.7125C48.8111 40.4104 48.9387 40.0875 49.0273 39.7438C49.121 39.4 49.1679 39.0615 49.1679 38.7281C49.1679 38.249 49.1132 37.7698 49.0038 37.2906C48.8945 36.8063 48.7486 36.374 48.5663 35.9938C48.3997 35.6396 48.0663 34.9703 47.5663 33.9859L47.4492 33.7516C47.2669 33.3922 47.121 33.0016 47.0117 32.5797C46.9023 32.1526 46.8476 31.7333 46.8476 31.3219Z" fill="#18181B"/>
</g>
<defs>
<clipPath id="clip0_1_2">
<rect width="60" height="65" fill="white"/>
</clipPath>
</defs>
</svg>
